<svg width="130" height="131" viewBox="0 0 130 131" fill="none" xmlns="http://www.w3.org/2000/svg">
<circle opacity="0.1" cx="65" cy="65.5" r="65" fill="#0FB957"/>
<circle cx="65" cy="65.5" r="45" fill="white"/>
<g clip-path="url(#clip0_124_3416)">
<path d="M81.9774 68.6375C79.1274 61.0672 71.379 54.8328 74.0509 45.5703C63.6306 46.4609 53.2103 47.4406 42.7899 48.3313C37.8024 65.6094 59.3556 75.1391 54.279 92.4172C63.7196 87.5187 73.5165 83.1547 82.8681 78.3453C83.8478 74.9609 83.0462 71.4875 81.9774 68.6375Z" fill="#93A2AA"/>
<path d="M42.8789 71.6656C45.6398 70.0625 48.4898 68.4594 51.2508 66.7672C53.1211 68.4594 54.8133 70.3297 55.793 72.5563C52.8539 73.9813 49.9148 75.4953 47.0648 76.9203C47.1539 75.5844 47.1539 74.3375 47.0648 73.1797C45.7289 72.6453 44.3039 72.111 42.8789 71.6656Z" fill="#933434"/>
<path d="M89.5469 67.7469C86.2516 59.0188 77.3454 51.8938 80.4625 41.2063C68.5282 42.275 56.5047 43.3438 44.5704 44.4125C38.7813 64.1844 63.4516 75.1391 57.6625 95C68.4391 89.3891 79.75 84.4016 90.5266 78.7907C91.6844 74.8719 90.7938 70.9532 89.5469 67.7469Z" fill="#B0BDC6"/>
<path d="M37 58.4844C40.6516 57.4157 44.3922 56.2578 48.0437 55.1891C49.825 57.6828 51.25 60.3547 51.8734 63.2938C48.0438 64.1844 44.3031 64.986 40.4734 65.8766C41.0078 64.3625 41.275 62.9375 41.4531 61.4235C40.0281 60.3547 38.6031 59.4641 37 58.4844Z" fill="#ED4C5C"/>
<path d="M46.1741 42.4531C41.2757 61.5125 66.4804 70.775 61.4929 89.8344C72.0913 84.1344 83.046 78.8797 93.6444 73.1797C94.6241 69.4391 93.5554 65.6984 92.2194 62.7594C88.4788 54.5656 79.3054 48.1531 81.9772 38C70.0429 39.5141 58.1085 41.0281 46.1741 42.4531Z" fill="#D9E3E8"/>
<path d="M50.1816 49.0437C50.2707 49.7562 50.4488 50.4687 50.5379 51.0921L77.5238 45.7484C77.4348 45.214 77.2566 44.6796 77.1676 44.1453C68.1723 45.8375 59.177 47.4406 50.1816 49.0437ZM52.6754 56.614C61.4926 54.4765 70.3098 52.339 79.216 50.2015C78.9488 49.6671 78.6816 49.2218 78.5035 48.6875C69.5973 50.7359 60.691 52.6953 51.7848 54.7437C52.052 55.3671 52.4082 55.9906 52.6754 56.614ZM55.8816 61.6906C64.5207 59.1968 73.0707 56.7031 81.7098 54.2093C81.3535 53.764 81.0863 53.2296 80.7301 52.7843C72.002 55.189 63.3629 57.5046 54.6348 59.9093C55.0801 60.5328 55.4363 61.1562 55.8816 61.6906ZM65.5004 78.7015C65.6785 79.414 65.7676 80.0374 65.8566 80.75C69.7754 78.8796 73.7832 76.9203 77.702 75.0499C77.6129 74.4265 77.5238 73.8031 77.3457 73.1796C73.427 74.9609 69.5082 76.8312 65.5004 78.7015Z" fill="#7D8B91"/>
</g>
<defs>
<clipPath id="clip0_124_3416">
<rect width="57" height="57" fill="white" transform="translate(37 38)"/>
</clipPath>
</defs>
</svg>
