<svg width="130" height="130" viewBox="0 0 130 130" fill="none" xmlns="http://www.w3.org/2000/svg">
<circle opacity="0.1" cx="65" cy="65" r="65" fill="#FD4343"/>
<circle cx="65" cy="65" r="45" fill="#FD4343"/>
<path d="M65 67.242L75.279 77.521C75.5746 77.8166 75.9377 77.9749 76.3683 77.996C76.799 78.0171 77.1832 77.8588 77.521 77.521C77.8588 77.1832 78.0277 76.8096 78.0277 76.4C78.0277 75.9904 77.8588 75.6168 77.521 75.279L67.242 65L77.521 54.721C77.8166 54.4254 77.9749 54.0623 77.996 53.6317C78.0171 53.201 77.8588 52.8168 77.521 52.479C77.1832 52.1412 76.8096 51.9723 76.4 51.9723C75.9904 51.9723 75.6168 52.1412 75.279 52.479L65 62.758L54.721 52.479C54.4254 52.1834 54.0623 52.0251 53.6317 52.004C53.201 51.9829 52.8168 52.1412 52.479 52.479C52.1412 52.8168 51.9723 53.1904 51.9723 53.6C51.9723 54.0096 52.1412 54.3832 52.479 54.721L62.758 65L52.479 75.279C52.1834 75.5746 52.0251 75.9387 52.004 76.3715C51.9829 76.8001 52.1412 77.1832 52.479 77.521C52.8168 77.8588 53.1904 78.0277 53.6 78.0277C54.0096 78.0277 54.3832 77.8588 54.721 77.521L65 67.242ZM65.0095 93.5C61.0681 93.5 57.3631 92.7527 53.8945 91.258C50.4259 89.7612 47.4081 87.7303 44.841 85.1653C42.2739 82.6003 40.2419 79.5857 38.7452 76.1213C37.2484 72.657 36.5 68.9531 36.5 65.0095C36.5 61.0659 37.2484 57.3609 38.7452 53.8945C40.2398 50.4259 42.2676 47.4081 44.8283 44.841C47.3891 42.2739 50.4048 40.2419 53.8755 38.7452C57.3462 37.2484 61.0512 36.5 64.9905 36.5C68.9298 36.5 72.6348 37.2484 76.1055 38.7452C79.5741 40.2398 82.5919 42.2686 85.159 44.8315C87.7261 47.3944 89.7581 50.4101 91.2548 53.8787C92.7516 57.3472 93.5 61.0512 93.5 64.9905C93.5 68.9298 92.7527 72.6348 91.258 76.1055C89.7633 79.5762 87.7324 82.594 85.1653 85.159C82.5982 87.724 79.5836 89.7559 76.1213 91.2548C72.6591 92.7537 68.9552 93.5021 65.0095 93.5Z" fill="white"/>
</svg>
