<svg width="76" height="76" viewBox="0 0 76 76" fill="none" xmlns="http://www.w3.org/2000/svg">
<rect width="76" height="76" rx="8" fill="#EFF5FF"/>
<path d="M24.5908 21.6343C25.1001 21.0506 25.8368 20.7157 26.6115 20.7157H49.2402C50.0148 20.7157 50.7515 21.0506 51.2608 21.6343L58.3822 29.7961C59.2973 30.8449 59.2579 32.4195 58.2914 33.4212L39.8556 52.5283C38.8012 53.6212 37.0504 53.6212 35.996 52.5283L17.5602 33.4212C16.5937 32.4195 16.5543 30.8449 17.4694 29.7961L24.5908 21.6343Z" fill="#628CCA"/>
<path d="M26.6319 24.2916C26.2547 22.4444 27.666 20.7157 29.5513 20.7157H46.3005C48.1857 20.7157 49.5971 22.4444 49.2199 24.2915L47.7717 31.3828C47.7354 31.5607 47.6811 31.7344 47.6096 31.9013L38.7477 52.6082C38.4383 53.3311 37.4135 53.3311 37.1041 52.6082L28.2421 31.9013C28.1707 31.7344 28.1164 31.5607 28.0801 31.3828L26.6319 24.2916Z" fill="#9DBEF7"/>
<path d="M49.2396 20.7157C50.0143 20.7157 50.7509 21.051 51.2602 21.6346L58.3822 29.7958C58.9893 30.4915 59.1726 31.418 58.9477 32.2557H16.9027C16.6778 31.418 16.8621 30.4915 17.4691 29.7958L24.5902 21.6346C25.0994 21.0511 25.8363 20.7158 26.6107 20.7157H49.2396Z" fill="#9DBEF7"/>
<path d="M43.0991 22.131C42.7319 21.2725 41.8882 20.7157 40.9545 20.7157H34.1825C33.1964 20.7157 32.3168 21.3359 31.9855 22.2647L28.4223 32.2557C28.2411 32.7704 28.2813 31.7346 28.4223 32.2557H47.4293C47.5703 31.7346 47.6104 32.7704 47.4293 32.2557L43.0991 22.131Z" fill="#C3D5FA"/>
<path d="M37.933 20.7157H37.9171L47.4571 32.2557H28.3931L37.933 20.7157Z" fill="#C3D5FA"/>
<path d="M12.9961 10.2939C13.1723 14.9339 15.7582 18.6396 18.9961 18.8921C15.7582 19.1446 13.1723 22.8503 12.9961 27.4902C12.8199 22.8503 10.234 19.1446 6.99609 18.8921C10.234 18.6396 12.8199 14.9339 12.9961 10.2939Z" fill="#F6AF4A"/>
</svg>
