<svg width="130" height="131" viewBox="0 0 130 131" fill="none" xmlns="http://www.w3.org/2000/svg">
<circle opacity="0.1" cx="65" cy="65.5" r="65" fill="#FFCF00"/>
<circle cx="65" cy="65.5" r="45" fill="white"/>
<path d="M42.255 93.2187C39.3159 93.2187 37.98 91.0812 39.3159 88.4984L63.0956 41.7406C64.4316 39.1578 66.5691 39.1578 67.905 41.7406L91.6847 88.4984C93.0206 91.0812 91.6847 93.2187 88.7456 93.2187H42.255Z" fill="#FFCE31"/>
<path d="M61.7594 59.0187L64.2531 75.4953C64.5203 77.0984 66.5687 77.0984 66.8359 75.4953L69.2406 59.0187C69.6859 52.6062 61.314 52.6062 61.7594 59.0187Z" fill="#231F20"/>
<path d="M65.5004 85.9156C67.5663 85.9156 69.241 84.2408 69.241 82.1749C69.241 80.1091 67.5663 78.4343 65.5004 78.4343C63.4345 78.4343 61.7598 80.1091 61.7598 82.1749C61.7598 84.2408 63.4345 85.9156 65.5004 85.9156Z" fill="#231F20"/>
</svg>
