<svg width="800" height="800" viewBox="0 0 800 800" fill="none" xmlns="http://www.w3.org/2000/svg">
<g clip-path="url(#clip0_16_630)">
<path d="M400 800C620.914 800 800 620.914 800 400C800 179.086 620.914 0 400 0C179.086 0 0 179.086 0 400C0 620.914 179.086 800 400 800Z" fill="#002878"/>
<path d="M286.48 345.22C276.8 341.26 265.36 339.06 253.48 339.06C229.72 339.06 213.44 345.22 197.16 360.18V236.98H161.08L107.84 241.38V283.18L138.2 284.5V540.58C173.84 556.42 202 563.02 236.32 563.02C304.52 563.02 337.96 524.74 337.96 446.42C337.96 394.06 319.92 358.86 286.48 345.22ZM251.72 511.54C246 514.62 238.96 516.38 231.04 516.38C217.84 516.38 207.28 512.86 197.16 505.38V444.66C197.16 414.74 204.64 398.02 222.24 389.22C227.08 387.02 232.8 385.7 238.08 385.7C257.44 385.7 269.76 399.34 274.6 425.74C275.92 433.22 276.8 441.14 276.8 448.62C276.8 479.86 267.56 503.18 251.72 511.54Z" fill="white"/>
<path d="M457.19 456.38H498.19L471.27 556.86H414.95L359.95 388.78L334.88 385.26V343.46H443.55V384.82L421.11 388.34L448.83 487.78L457.19 456.38Z" fill="white"/>
<path d="M565.83 420.38H519.07L513.51 399.18L507.83 420.38H466.77L491.51 327.46H542.11L565.83 420.38Z" fill="#F6D753"/>
<path d="M692.16 343.46V385.26L666.64 389.22L608.99 556.86H554.88L528.51 456.38H575.02L583.03 487.78L611.63 388.78L587.43 384.82V343.46H692.16Z" fill="white"/>
</g>
<defs>
<clipPath id="clip0_16_630">
<rect width="800" height="800" fill="white"/>
</clipPath>
</defs>
</svg>
