<svg width="140" height="141" viewBox="0 0 140 141" fill="none" xmlns="http://www.w3.org/2000/svg">
<ellipse cx="70" cy="130.861" rx="70" ry="3.42288" fill="#E2ECFE"/>
<rect x="23.1963" y="15.61" width="79.6056" height="115.251" rx="19.4483" fill="#628CCA"/>
<rect x="30.1963" y="15.61" width="79.6056" height="115.251" rx="19.4483" fill="white"/>
<rect x="42.981" y="97.0387" width="54.0367" height="11.7037" rx="5.85185" fill="#9DBEF7"/>
<rect x="42.981" y="79.5559" width="54.0367" height="11.7037" rx="5.85185" fill="#E7EEFD"/>
<circle cx="69.4405" cy="57.2287" r="13.3926" fill="#7AB26B"/>
<path d="M64.7266 57.4361L67.7302 60.4396L74.1518 54.0181" stroke="white" stroke-width="3.02013" stroke-linecap="round" stroke-linejoin="round"/>
<rect x="33.0138" y="18.4275" width="73.9706" height="109.616" rx="16.6308" stroke="#9DBEF7" stroke-width="5.635"/>
<path d="M60.228 30.1626L69.4073 30.1626" stroke="#628CCA" stroke-width="5.25" stroke-linecap="round"/>
<circle cx="77.3217" cy="30.1622" r="2.44919" fill="#2B4064"/>
<path d="M124.01 14.9569C124.601 19.6218 128.275 23.2953 132.94 23.8862C128.275 24.4771 124.601 28.1506 124.01 32.8155C123.419 28.1506 119.746 24.4771 115.081 23.8862C119.746 23.2953 123.419 19.6218 124.01 14.9569Z" fill="#F6AF4A"/>
</svg>
