<svg width="196" height="42" viewBox="0 0 196 42" fill="none" xmlns="http://www.w3.org/2000/svg">
<g clip-path="url(#clip0_380_5461)">
<path d="M0.508301 21.0917C0.508301 9.76885 9.73036 0.590576 21.1071 0.590576C32.484 0.590576 41.7062 9.76885 41.7062 21.0917C41.7062 32.4145 32.484 41.5928 21.1071 41.5928C9.73342 41.5928 0.508301 32.4145 0.508301 21.0917Z" fill="#5F259F"/>
<path d="M30.4304 15.7162C30.4304 14.9226 29.7823 14.2774 28.9851 14.2774H26.2397L19.909 7.00768C19.3215 6.3321 18.3933 6.06242 17.535 6.31676L15.3375 6.9681C15.0027 7.06811 14.8993 7.49212 15.1518 7.73141L22.0456 14.2745H11.5117C11.2073 14.2745 10.9639 14.5198 10.9639 14.8198V16.004C10.9639 16.7978 11.6091 17.443 12.4096 17.443H14.0196V22.977C14.0196 27.1091 16.2323 29.5745 19.9364 29.5745C21.0625 29.5745 22.0302 29.4444 23.1412 29.0112V32.7008C23.1412 33.7004 23.957 34.5121 24.9613 34.5121H26.5593C26.9395 34.5121 27.2471 34.2063 27.2471 33.8274V17.443H29.8887C30.1933 17.443 30.4366 17.1975 30.4366 16.8977V15.7162H30.4304ZM23.1351 25.5671C22.487 25.8579 21.5433 26.0214 20.8462 26.0214C18.9594 26.0214 18.1193 25.0823 18.1193 22.9801V17.446H23.1351V25.5671Z" fill="white"/>
<path d="M104.804 32.8054V25.3599C104.804 23.4847 104.064 22.6487 102.408 22.6487C101.705 22.6487 100.91 22.7426 100.4 22.9184V33.8292C100.4 34.2078 100.092 34.5139 99.7114 34.5139H97.0761C96.6987 34.5139 96.3878 34.2078 96.3878 33.8292V21.0524C96.3878 20.6072 96.6895 20.2225 97.0486 20.0952C98.7498 19.4923 100.542 19.1257 102.405 19.1257C106.551 19.1257 108.836 21.3402 108.836 25.363V33.8323C108.836 34.2109 108.528 34.517 108.149 34.517H106.517C105.571 34.514 104.804 33.7476 104.804 32.8054ZM115.197 28.3132H115.106V28.404L115.109 29.3673C115.109 30.7608 116.001 31.5604 117.556 31.5604C118.71 31.5604 119.805 31.2696 120.898 30.6697C120.962 30.6366 121.078 30.5881 121.263 30.5881C121.48 30.5881 121.656 30.7124 121.756 30.8305C121.859 30.9486 122.158 31.2938 122.158 31.2938C122.444 31.6242 122.62 32.0482 122.605 32.4844C122.584 33.075 122.264 33.5868 121.765 33.8503C120.472 34.5351 119.05 34.8683 117.419 34.8683C115.602 34.8683 114.047 34.3867 112.921 33.4717C111.71 32.4903 111.07 31.0425 111.07 29.2854V24.8387C111.07 21.2583 113.414 19.1199 117.337 19.1199C121.163 19.1199 123.357 21.204 123.357 24.8387L123.354 27.6287C123.354 28.0043 123.047 28.3101 122.666 28.3101H115.197V28.3132ZM115.106 25.7959H115.197H119.416H119.507V25.7051L119.51 24.6509C119.51 23.2243 118.707 22.4033 117.309 22.4033C115.888 22.4033 115.106 23.2031 115.106 24.6509L115.103 25.7051L115.106 25.7959ZM144.525 28.3132H144.434V28.404L144.437 29.3673C144.437 30.7608 145.329 31.5604 146.887 31.5604C148.041 31.5604 149.136 31.2696 150.229 30.6697C150.293 30.6366 150.409 30.5881 150.594 30.5881C150.807 30.5881 150.984 30.7124 151.087 30.8305C151.19 30.9486 151.489 31.2938 151.489 31.2938C151.775 31.6242 151.952 32.0482 151.936 32.4844C151.915 33.075 151.596 33.5868 151.096 33.8503C149.805 34.5351 148.381 34.8683 146.75 34.8683C144.933 34.8683 143.378 34.3867 142.252 33.4717C141.041 32.4903 140.401 31.0425 140.401 29.2854V24.8387C140.401 21.2583 142.745 19.1199 146.668 19.1199C150.494 19.1199 152.688 21.204 152.688 24.8387L152.685 27.6287C152.685 28.0043 152.377 28.3101 151.997 28.3101H144.525V28.3132ZM144.434 25.7959H144.525H148.747H148.838V25.7051L148.841 24.6509C148.841 23.2243 148.038 22.4033 146.64 22.4033C145.219 22.4033 144.437 23.2031 144.437 24.6509L144.434 25.7051V25.7959ZM76.6531 34.5139H78.2846C78.6651 34.5139 78.9729 34.2078 78.9729 33.8292V25.3326C78.9729 21.4433 76.8874 19.1229 73.3937 19.1229C72.3407 19.1229 71.2053 19.3046 70.5327 19.5985V15.403C70.5327 14.4611 69.7658 13.6947 68.8162 13.6947H67.2121C66.8319 13.6947 66.5243 14.0005 66.5243 14.3792V33.8292C66.5243 34.2078 66.8319 34.5139 67.2121 34.5139H69.8448C70.2253 34.5139 70.5327 34.2078 70.5327 33.8292V23.0061C71.0805 22.7579 71.8842 22.6214 72.5172 22.6214C74.1912 22.6214 74.9399 23.4574 74.9399 25.3326V32.8054C74.9368 33.7476 75.7068 34.5139 76.6531 34.5139ZM94.0412 24.8963V29.1765C94.0412 32.6873 91.5881 34.8683 87.6375 34.8683C83.6716 34.8683 81.207 32.6873 81.207 29.1765V24.8963C81.207 21.334 83.6716 19.1229 87.6375 19.1229C91.5881 19.1229 94.0412 21.334 94.0412 24.8963ZM89.9811 24.8963C89.9811 23.4697 89.1289 22.6518 87.6406 22.6518C86.1522 22.6518 85.3 23.4697 85.3 24.8963V29.1765C85.3 30.5912 86.1307 31.3695 87.6406 31.3695C89.1504 31.3695 89.9811 30.5912 89.9811 29.1765V24.8963ZM64.2933 22.9214C64.2874 26.635 61.5024 29.128 57.8502 29.128C56.928 29.128 56.1366 28.9977 55.3574 28.6949V33.8292C55.3574 34.2078 55.0502 34.5139 54.6697 34.5139H51.9729C51.5924 34.5139 51.2852 34.2078 51.2852 33.8292V15.5999C51.2852 15.094 51.6413 14.7458 51.9729 14.6335C53.6712 14.0583 55.4519 13.7067 57.2596 13.7067C61.3929 13.7067 64.2905 16.2117 64.2905 20.0891V22.9214H64.2933ZM60.1634 19.9982C60.1634 18.1931 58.9429 17.2751 57.144 17.2751C56.152 17.2751 55.3574 17.5902 55.3574 17.5902V25.1418C55.9967 25.49 56.4439 25.6023 57.1714 25.6023C58.9459 25.6023 60.1634 24.6116 60.1634 22.888V19.9982ZM138.727 22.9214C138.721 26.635 135.936 29.128 132.284 29.128C131.362 29.128 130.571 28.9977 129.791 28.6949V33.8292C129.791 34.2078 129.483 34.5139 129.104 34.5139H126.406C126.026 34.5139 125.719 34.2078 125.719 33.8292V15.5999C125.719 15.094 126.075 14.7458 126.406 14.6335C128.105 14.0583 129.885 13.7067 131.694 13.7067C135.827 13.7067 138.724 16.2117 138.724 20.0891V22.9214H138.727ZM134.597 19.9982C134.597 18.1931 133.377 17.2751 131.577 17.2751C130.585 17.2751 129.791 17.5902 129.791 17.5902V25.1418C130.431 25.49 130.878 25.6023 131.605 25.6023C133.38 25.6023 134.597 24.6116 134.597 22.888V19.9982Z" fill="#5F259F"/>
<path d="M182.91 13.65H157.749C160.433 17.1334 162.031 21.4864 162.031 26.2148C162.031 30.9432 160.433 35.2961 157.749 38.7795H182.91C189.883 38.7795 195.535 33.1547 195.535 26.2148C195.535 19.2749 189.883 13.65 182.91 13.65Z" fill="#5F259F"/>
<path d="M176.218 24.3838C176.218 27.0131 174.239 28.3823 171.729 28.3823H169.832V32.1719H167.157V20.3975H171.726C174.242 20.4006 176.218 21.7395 176.218 24.3838ZM171.567 25.965C172.621 25.965 173.464 25.5137 173.464 24.3838C173.464 23.2873 172.621 22.836 171.567 22.836H169.832V25.965H171.567Z" fill="#F4F3F4"/>
<path d="M182.423 25.398H187.235V30.9443C187.235 31.3472 187.104 31.6531 186.7 31.847C186.085 32.1197 185.306 32.3317 184.024 32.3317C180.086 32.3317 177.35 29.7659 177.35 26.2825C177.35 22.8141 179.991 20.2363 183.799 20.2363C185.272 20.2363 186.343 20.5272 187.071 20.8481V23.4774C186.277 22.993 185.141 22.7353 184.039 22.7353C182.128 22.7353 180.247 23.6713 180.247 26.2825C180.247 28.9603 182.226 29.8963 184.283 29.8963C184.429 29.8963 184.575 29.881 184.721 29.881V27.6729H182.42V25.398H182.423Z" fill="#F4F3F4"/>
</g>
<defs>
<clipPath id="clip0_380_5461">
<rect width="196" height="42" fill="white"/>
</clipPath>
</defs>
</svg>
