<svg width="130" height="130" viewBox="0 0 130 130" fill="none" xmlns="http://www.w3.org/2000/svg">
<circle opacity="0.1" cx="65" cy="65" r="65" fill="#0FB957"/>
<circle cx="65" cy="65" r="45" fill="#0FB957"/>
<path d="M65 39.25C50.5363 39.25 38.75 51.0363 38.75 65.5C38.75 79.9638 50.5363 91.75 65 91.75C79.4638 91.75 91.25 79.9638 91.25 65.5C91.25 51.0363 79.4638 39.25 65 39.25ZM77.5475 59.4625L62.6638 74.3463C62.2963 74.7138 61.7975 74.9238 61.2725 74.9238C60.7475 74.9238 60.2488 74.7138 59.8813 74.3463L52.4525 66.9175C51.6913 66.1563 51.6913 64.8963 52.4525 64.135C53.2138 63.3738 54.4738 63.3738 55.235 64.135L61.2725 70.1725L74.765 56.68C75.5263 55.9188 76.7863 55.9188 77.5475 56.68C78.3088 57.4413 78.3088 58.675 77.5475 59.4625Z" fill="#FEFEFE"/>
</svg>
