<svg width="24" height="24" viewBox="0 0 24 24" fill="none" xmlns="http://www.w3.org/2000/svg">
<path d="M16.3076 4.38397C15.7176 4.38397 15.4216 4.38397 15.1526 4.28397L15.0416 4.23797C14.7806 4.11797 14.5716 3.90997 14.1536 3.49197C13.1916 2.52997 12.7106 2.04897 12.1196 2.00397C12.0397 1.99917 11.9595 1.99917 11.8796 2.00397C11.2886 2.04897 10.8076 2.52997 9.8456 3.49197C9.4276 3.90997 9.2186 4.11897 8.9576 4.23797L8.8476 4.28397C8.5776 4.38397 8.2826 4.38397 7.6916 4.38397H7.5816C6.0746 4.38397 5.3206 4.38397 4.8516 4.85197C4.3826 5.31997 4.3836 6.07497 4.3836 7.58197V7.69197C4.3836 8.28197 4.3836 8.57797 4.2836 8.84697C4.26894 8.88497 4.2536 8.92197 4.2376 8.95797C4.1176 9.21897 3.9096 9.42797 3.4916 9.84597C2.5296 10.808 2.0486 11.289 2.0036 11.88C1.9988 11.9599 1.9988 12.04 2.0036 12.12C2.0486 12.711 2.5296 13.192 3.4916 14.154C3.9096 14.572 4.1186 14.781 4.2376 15.042C4.25427 15.078 4.2696 15.1146 4.2836 15.152C4.3836 15.422 4.3836 15.717 4.3836 16.308V16.418C4.3836 17.925 4.3836 18.679 4.8516 19.148C5.3196 19.617 6.0746 19.616 7.5816 19.616H7.6916C8.2816 19.616 8.5776 19.616 8.8466 19.716C8.8846 19.73 8.9216 19.7453 8.9576 19.762C9.2186 19.882 9.4276 20.09 9.8456 20.508C10.8076 21.47 11.2886 21.951 11.8796 21.996C11.9596 22.002 12.0396 22.002 12.1196 21.996C12.7106 21.951 13.1916 21.47 14.1536 20.508C14.5716 20.09 14.7806 19.882 15.0416 19.762C15.0776 19.7453 15.1143 19.73 15.1516 19.716C15.4216 19.616 15.7166 19.616 16.3076 19.616H16.4176C17.9246 19.616 18.6786 19.616 19.1476 19.148C19.6166 18.68 19.6156 17.925 19.6156 16.418V16.308C19.6156 15.718 19.6156 15.422 19.7156 15.153C19.7296 15.115 19.7449 15.078 19.7616 15.042C19.8816 14.781 20.0896 14.572 20.5076 14.154C21.4696 13.192 21.9506 12.711 21.9956 12.12C22.0016 12.04 22.0016 11.96 21.9956 11.88C21.9506 11.289 21.4696 10.808 20.5076 9.84597C20.0896 9.42797 19.8816 9.21897 19.7616 8.95797L19.7156 8.84797C19.6156 8.57797 19.6156 8.28297 19.6156 7.69197V7.58197C19.6156 6.07497 19.6156 5.32097 19.1476 4.85197C18.6796 4.38297 17.9246 4.38397 16.4176 4.38397H16.3076Z" stroke="#1056BD" stroke-width="1.5" stroke-linecap="round" stroke-linejoin="round"/>
<path d="M8.5 16.5C8.85469 15.8857 9.36489 15.3755 9.97929 15.0209C10.5937 14.6663 11.2906 14.4798 12 14.48C13.496 14.48 14.801 15.292 15.5 16.5M14 10C14 10.5304 13.7893 11.0391 13.4142 11.4142C13.0391 11.7893 12.5304 12 12 12C11.4696 12 10.9609 11.7893 10.5858 11.4142C10.2107 11.0391 10 10.5304 10 10C10 9.46957 10.2107 8.96086 10.5858 8.58579C10.9609 8.21071 11.4696 8 12 8C12.5304 8 13.0391 8.21071 13.4142 8.58579C13.7893 8.96086 14 9.46957 14 10Z" stroke="#1056BD" stroke-width="1.5" stroke-linecap="round" stroke-linejoin="round"/>
</svg>
