<svg width="25" height="25" viewBox="0 0 25 25" fill="none" xmlns="http://www.w3.org/2000/svg">
<path d="M12.5001 12.5V18.5M12.5001 12.5C16.3661 12.5 19.5001 9.383 19.5001 5.538C19.5001 5.438 19.4981 5.338 19.4941 5.238C19.4511 4.238 19.4301 3.738 18.7521 3.119C18.0741 2.5 17.3251 2.5 15.8241 2.5H9.17606C7.67606 2.5 6.92506 2.5 6.24806 3.12C5.57106 3.738 5.54906 4.238 5.50606 5.237C5.50206 5.337 5.50006 5.43733 5.50006 5.538C5.50006 9.383 8.63406 12.5 12.5001 12.5ZM12.5001 18.5C10.8261 18.5 9.37006 19.512 8.61806 21.005C8.25806 21.718 8.77406 22.5 9.45806 22.5H15.5411C16.2261 22.5 16.7411 21.718 16.3821 21.005C15.6301 19.512 14.1741 18.5 12.5001 18.5ZM5.50006 5.5H4.48506C3.49806 5.5 3.00506 5.5 2.70006 5.87C2.39506 6.241 2.48506 6.656 2.66406 7.486C3.00406 9.07 3.74506 10.463 4.74906 11.5M19.5001 5.5H20.5151C21.5021 5.5 21.9951 5.5 22.3001 5.87C22.6051 6.241 22.5151 6.656 22.3371 7.486C21.9951 9.07 21.2551 10.463 20.2501 11.5" stroke="#1B1B1B" stroke-width="1.5" stroke-linecap="round" stroke-linejoin="round"/>
</svg>
