<svg width="21" height="21" viewBox="0 0 21 21" fill="none" xmlns="http://www.w3.org/2000/svg">
<path d="M1.5 9.3952L1.653 12.6222C1.817 16.0642 1.899 17.7842 3.059 18.8402C4.219 19.8952 6.027 19.8952 9.645 19.8952H11.355C14.973 19.8952 16.782 19.8952 17.941 18.8402C19.101 17.7842 19.183 16.0642 19.347 12.6222L19.5 9.3952" stroke="#1B1B1B" stroke-width="1.5" stroke-linecap="round" stroke-linejoin="round"/>
<path d="M1.34676 8.8382C3.04676 12.0692 6.87976 13.3952 10.4998 13.3952C14.1198 13.3952 17.9528 12.0692 19.6528 8.8382C20.4638 7.2962 19.8498 4.3952 17.8518 4.3952H3.14776C1.14976 4.3952 0.535755 7.2952 1.34776 8.8382M10.4998 9.3952H10.5088M14.4998 4.3952L14.4118 4.0852C13.9718 2.5452 13.7518 1.7752 13.2278 1.3352C12.7038 0.895203 12.0078 0.895203 10.6168 0.895203H10.3828C8.99176 0.895203 8.29576 0.895203 7.77276 1.3352C7.24776 1.7752 7.02776 2.5452 6.58776 4.0852L6.49976 4.3952" stroke="#1B1B1B" stroke-width="1.5" stroke-linecap="round" stroke-linejoin="round"/>
</svg>
