<svg width="25" height="25" viewBox="0 0 25 25" fill="none" xmlns="http://www.w3.org/2000/svg">
<path d="M12.496 7.5H12.505M4.5 10.5V19M8.5 10.5V19M16.5 10.5V19M20.5 10.5V19M2.5 9.07C2.5 7.873 2.982 7.14 3.98 6.584L8.09 4.297C10.243 3.1 11.32 2.5 12.5 2.5C13.68 2.5 14.757 3.1 16.91 4.297L21.02 6.584C22.017 7.14 22.5 7.873 22.5 9.07C22.5 9.394 22.5 9.557 22.465 9.69C22.279 10.39 21.644 10.501 21.031 10.501H3.969C3.356 10.501 2.722 10.391 2.535 9.69C2.5 9.556 2.5 9.394 2.5 9.07ZM19.5 19H5.5C4.70435 19 3.94129 19.3161 3.37868 19.8787C2.81607 20.4413 2.5 21.2044 2.5 22C2.5 22.1326 2.55268 22.2598 2.64645 22.3536C2.74021 22.4473 2.86739 22.5 3 22.5H22C22.1326 22.5 22.2598 22.4473 22.3536 22.3536C22.4473 22.2598 22.5 22.1326 22.5 22C22.5 21.2044 22.1839 20.4413 21.6213 19.8787C21.0587 19.3161 20.2956 19 19.5 19Z" stroke="#1B1B1B" stroke-width="1.5" stroke-linecap="round" stroke-linejoin="round"/>
</svg>
