<svg width="20" height="21" viewBox="0 0 20 21" fill="none" xmlns="http://www.w3.org/2000/svg">
<path d="M3.33398 15.4833V8.59082C3.33398 5.56249 3.33398 4.04916 4.31065 3.10749C5.28732 2.16582 6.85815 2.16666 10.0007 2.16666C13.1432 2.16666 14.7148 2.16666 15.6906 3.10749C16.6673 4.04749 16.6673 5.56166 16.6673 8.58999V15.4842C16.6673 17.4058 16.6673 18.3667 16.0231 18.71C14.7756 19.3767 12.4365 17.1542 11.3257 16.485C10.6815 16.0975 10.359 15.9033 10.0007 15.9033C9.64232 15.9033 9.31982 16.0975 8.67565 16.485C7.56482 17.1542 5.22565 19.3767 3.97815 18.71C3.33398 18.3667 3.33398 17.4058 3.33398 15.4842" stroke="#1B1B1B" stroke-width="1.25" stroke-linecap="round" stroke-linejoin="round"/>
</svg>
