<svg width="130" height="131" viewBox="0 0 130 131" fill="none" xmlns="http://www.w3.org/2000/svg">
<circle opacity="0.1" cx="65" cy="65.5" r="65" fill="#0FB957"/>
<circle cx="65" cy="65.5" r="45" fill="white"/>
<path d="M38.7812 92.3281L46.4406 89.6562L40.6516 86.9844L38.7812 92.3281Z" fill="#F7B600"/>
<path d="M60.9582 70.4188L50.1816 59.5531L48.4004 64.5406L60.9582 70.4188Z" fill="#FFDD7D"/>
<path d="M48.4008 64.5406L46.4414 70.1516L70.3102 81.2844L71.468 80.9281L60.9586 70.4187L48.4008 64.5406Z" fill="#F7B600"/>
<path d="M44.5703 75.7625L62.3828 84.0453L70.3094 81.2844L46.4406 70.1516L44.5703 75.7625Z" fill="#FFDD7D"/>
<path d="M42.6113 81.3734L54.3676 86.8953L62.3832 84.0453L44.5707 75.7625L42.6113 81.3734Z" fill="#F7B600"/>
<path d="M42.6117 81.3734L40.6523 86.9844L46.4414 89.6563L54.368 86.8953L42.6117 81.3734Z" fill="#FFDD7D"/>
<path d="M65.4106 65.7875C71.3778 71.6656 74.495 78.2563 72.3575 80.3938C70.1309 82.5313 63.5403 79.5031 57.4841 73.5359C51.5169 67.6578 48.3997 61.0672 50.5372 58.9297C52.7638 56.7922 59.3544 59.9094 65.4106 65.7875Z" fill="#493816"/>
<path d="M57.9287 50.9141C56.5037 48.8656 58.0178 47.975 59.9772 48.3313C58.1068 46.1047 59.2647 44.5016 62.2037 45.125C63.0943 45.3031 61.8475 46.8172 61.0459 46.8172C63.4506 48.5984 62.1147 50.5578 59.5318 50.1125C61.8475 53.2297 57.9287 52.4281 56.1475 52.6063C55.7022 54.9219 58.374 57.5938 57.4834 57.5938C55.524 57.5938 52.3178 50.2016 57.9287 50.9141Z" fill="#42ADE2"/>
<path d="M76.6324 55.1891C75.2964 55.8125 71.5558 49.9344 76.1871 49.8453C73.5152 47.4406 73.8714 46.2828 77.4339 46.1938C73.3371 42.0969 79.8386 40.6719 80.4621 42.8094C80.6402 43.4328 78.5027 42.275 77.7902 43.4328C76.9886 44.7688 82.7777 48.2422 76.8105 47.975C79.0371 50.2016 79.1261 51.2703 75.6527 51.6266C76.098 52.3391 77.523 54.8328 76.6324 55.1891Z" fill="#FF8736"/>
<path d="M78.1465 69.0828L79.4824 67.925C79.4824 67.925 80.7293 69.7953 81.6199 70.5078C82.3324 67.3016 82.1543 65.4312 85.8059 67.5687C83.7574 62.0469 87.1418 64.0953 90.4371 65.6094C90.259 64.1844 90.4371 64.3625 91.8621 63.9172C93.109 68.6375 89.7246 67.2125 87.0527 65.6984C88.6559 69.9734 86.9637 69.7062 83.5793 68.2812C83.4902 70.0625 82.9559 72.1109 81.8871 72.2891C80.6402 72.6453 78.1465 69.0828 78.1465 69.0828Z" fill="#ED4C5C"/>
<path d="M68.1715 55.9016C66.5684 58.0391 63.9855 59.1969 62.1152 61.0672C60.1559 63.0266 58.998 68.3703 58.998 68.3703C58.998 68.3703 59.7105 62.7594 61.5809 60.6219C63.273 58.6625 65.7668 57.2375 67.1027 55.0109C69.4184 50.9141 67.2809 45.5703 64.2527 42.4531C64.8762 41.9187 65.7668 41.2063 66.2121 40.6719C69.1512 44.3234 71.6449 51.3594 68.1715 55.9016Z" fill="#C28FEF"/>
<path d="M70.9336 60.4437C68.618 62.1359 66.9258 64.6297 65.3227 66.9453C63.8977 68.9937 59.3555 71.5766 59.3555 71.5766C59.3555 71.5766 63.6305 68.6375 64.9664 66.5C66.5695 63.8281 68.1727 61.0672 70.6664 59.1078C75.6539 55.2781 82.868 55.6344 88.4789 57.6828C88.1227 58.4844 87.4992 60.1766 87.4992 60.1766C87.4992 60.1766 75.6539 56.9703 70.9336 60.4437Z" fill="#FF8736"/>
<path d="M80.8192 59.9984C79.3052 61.9578 78.5927 64.3625 77.4348 66.5891C76.3661 68.6375 74.9411 70.5969 72.8927 71.6656C70.577 72.8234 65.5005 72.4672 65.5005 72.4672C65.5005 72.4672 70.577 72.3781 72.7145 70.9531C74.852 69.5281 76.0098 67.0344 76.8114 64.7187C78.4145 60.2656 80.3739 55.4562 85.0052 53.4969C85.2723 54.2984 85.8958 55.9906 85.8958 55.9906C85.8958 55.9906 83.313 56.7031 80.8192 59.9984ZM39.8594 50.7582L42.3781 48.2386L44.8976 50.7573L42.379 53.2778L39.8594 50.7582Z" fill="#42ADE2"/>
<path d="M43.3887 58.6598L45.9065 56.1411L48.4252 58.6598L45.9065 61.1785L43.3887 58.6598Z" fill="#FF8736"/>
<path d="M49.7871 46.7477L52.3058 44.229L54.8245 46.7477L52.3058 49.2664L49.7871 46.7477Z" fill="#ED4C5C"/>
<path d="M77.2598 76.9167L79.7785 74.3972L82.2971 76.9167L79.7785 79.4354L77.2598 76.9167Z" fill="#C28FEF"/>
<path d="M71.6484 85.5505L74.1671 83.0318L76.6867 85.5513L74.1671 88.07L71.6484 85.5505Z" fill="#ED4C5C"/>
<path d="M82.6699 87.525L85.1886 85.0054L87.7073 87.525L85.1886 90.0437L82.6699 87.525Z" fill="#FF8736"/>
<path d="M85.1626 76.0573L87.6812 73.5386L90.1999 76.0573L87.6812 78.5769L85.1626 76.0573ZM80.957 49.4205L83.4757 46.9009L85.9953 49.4205L83.4766 51.9392L80.957 49.4205Z" fill="#42ADE2"/>
<path d="M53.9609 64.5335L56.4805 62.0148L58.9992 64.5335L56.4805 67.0531L53.9609 64.5335Z" fill="#ED4C5C"/>
</svg>
