<svg width="76" height="76" viewBox="0 0 76 76" fill="none" xmlns="http://www.w3.org/2000/svg">
<rect width="76" height="76" rx="8" fill="#EFF5FF"/>
<path d="M24.5908 21.6343C25.1001 21.0506 25.8368 20.7157 26.6115 20.7157H49.2402C50.0148 20.7157 50.7515 21.0506 51.2608 21.6343L58.3822 29.7961C59.2973 30.8449 59.2579 32.4195 58.2914 33.4212L39.8556 52.5283C38.8012 53.6212 37.0504 53.6212 35.996 52.5283L17.5602 33.4212C16.5937 32.4195 16.5543 30.8449 17.4694 29.7961L24.5908 21.6343Z" fill="#628CCA"/>
<path d="M26.6326 24.2916C26.2554 22.4444 27.6668 20.7157 29.552 20.7157H46.3012C48.1864 20.7157 49.5978 22.4444 49.2206 24.2915L47.7724 31.3828C47.7361 31.5607 47.6818 31.7344 47.6104 31.9013L38.7484 52.6082C38.439 53.3311 37.4142 53.3311 37.1048 52.6082L28.2429 31.9013C28.1714 31.7344 28.1171 31.5607 28.0808 31.3828L26.6326 24.2916Z" fill="#9DBEF7"/>
<path d="M49.2402 20.7157C50.0148 20.7157 50.7515 21.051 51.2607 21.6346L58.3828 29.7958C58.9898 30.4915 59.1732 31.418 58.9482 32.2557H16.9033C16.6784 31.418 16.8627 30.4915 17.4697 29.7958L24.5908 21.6346C25.1 21.0511 25.8368 20.7158 26.6113 20.7157H49.2402Z" fill="#9DBEF7"/>
<path d="M43.0989 22.131C42.7317 21.2725 41.8879 20.7157 40.9542 20.7157H34.1823C33.1961 20.7157 32.3166 21.3359 31.9853 22.2647L28.422 32.2557C28.2409 32.7704 28.2811 31.7346 28.422 32.2557H47.4291C47.57 31.7346 47.6102 32.7704 47.4291 32.2557L43.0989 22.131Z" fill="#C3D5FA"/>
<path d="M37.9325 20.7157H37.9167L47.4566 32.2557H28.3926L37.9325 20.7157Z" fill="#C3D5FA"/>
<path d="M12.9961 10.2939C13.1723 14.9339 15.7582 18.6396 18.9961 18.8921C15.7582 19.1446 13.1723 22.8503 12.9961 27.4902C12.8199 22.8503 10.234 19.1446 6.99609 18.8921C10.234 18.6396 12.8199 14.9339 12.9961 10.2939Z" fill="#F6AF4A"/>
</svg>
