<svg width="24" height="24" viewBox="0 0 24 24" fill="none" xmlns="http://www.w3.org/2000/svg">
<path d="M15.214 5.982L16.616 4.581C16.9877 4.2093 17.4918 4.00048 18.0175 4.00048C18.5432 4.00048 19.0473 4.2093 19.419 4.581C19.7907 4.9527 19.9995 5.45684 19.9995 5.9825C19.9995 6.50817 19.7907 7.0123 19.419 7.384L18.018 8.786M15.214 5.982L6.98 14.216C5.935 15.262 5.412 15.784 5.056 16.421C4.7 17.058 4.342 18.561 4 20C5.438 19.658 6.942 19.3 7.579 18.944C8.216 18.588 8.739 18.065 9.784 17.02L18.018 8.786M15.214 5.982L18.018 8.786M11 20H17" stroke="black" stroke-width="1.5" stroke-linecap="round" stroke-linejoin="round"/>
</svg>
