<svg width="76" height="76" viewBox="0 0 76 76" fill="none" xmlns="http://www.w3.org/2000/svg">
<rect width="76" height="76" rx="8" fill="#EFF5FF"/>
<path d="M38 13C38.1762 17.64 40.7621 21.3456 44 21.5982C40.7621 21.8507 38.1762 25.5563 38 30.1963C37.8238 25.5563 35.2379 21.8507 32 21.5982C35.2379 21.3456 37.8238 17.64 38 13Z" fill="#F6AF4A"/>
<g clip-path="url(#clip0_1106_6115)">
<path d="M16 58.5164V35.146C16.0025 34.9672 16.0577 34.793 16.1586 34.6451C16.2596 34.4972 16.4019 34.3821 16.5679 34.314C16.7339 34.2459 16.9163 34.2279 17.0926 34.2621C17.2688 34.2963 17.431 34.3813 17.5592 34.5065L38.0129 54.8619L58.4665 34.4882C58.5947 34.363 58.757 34.278 58.9332 34.2438C59.1095 34.2096 59.2919 34.2277 59.4579 34.2957C59.6239 34.3638 59.7662 34.479 59.8672 34.6269C59.9681 34.7747 60.0233 34.9489 60.0258 35.1277V58.5164C60.0258 59.9703 59.446 61.3646 58.4139 62.3926C57.3819 63.4206 55.9821 63.9981 54.5226 63.9981H21.5032C20.0437 63.9981 18.6439 63.4206 17.6119 62.3926C16.5798 61.3646 16 59.9703 16 58.5164Z" fill="#9DBEF7"/>
<path d="M24.0156 63.9981H48.3399L43.0935 49.8005L38.0122 54.8619L30.2526 47.1327L24.0156 63.9981Z" fill="#628CCA"/>
<path d="M37.1506 31.6012L25.1719 63.9982H50.8536L38.8749 31.6012C38.8106 31.4248 38.6934 31.2724 38.5392 31.1647C38.3849 31.057 38.2011 30.9993 38.0127 30.9993C37.8244 30.9993 37.6406 31.057 37.4863 31.1647C37.3321 31.2724 37.2148 31.4248 37.1506 31.6012Z" fill="#C3D5FA"/>
</g>
<defs>
<clipPath id="clip0_1106_6115">
<rect width="44" height="33" fill="white" transform="translate(16 31)"/>
</clipPath>
</defs>
</svg>
