<svg width="24" height="25" viewBox="0 0 24 25" fill="none" xmlns="http://www.w3.org/2000/svg">
<path d="M12 3C17.2439 3 21.5 7.25614 21.5 12.5C21.5 17.7439 17.2439 22 12 22C6.75614 22 2.5 17.7439 2.5 12.5C2.5 7.25614 6.75614 3 12 3ZM12 4.25C10.2014 4.25 8.48658 4.82533 7.05078 5.89941L7.04785 5.90137C6.50286 6.31433 6.38125 7.09727 6.80176 7.65234C7.21449 8.1967 7.99588 8.31881 8.55078 7.89941C9.55334 7.14526 10.7476 6.75 12 6.75C15.1739 6.75 17.75 9.32614 17.75 12.5C17.75 15.6739 15.1739 18.25 12 18.25C8.82614 18.25 6.25 15.6739 6.25 12.5C6.25 11.919 6.3384 11.3424 6.50781 10.79L11.3809 13.584L11.3867 13.5869C11.9828 13.9181 12.7339 13.7188 13.082 13.1221L13.0869 13.1133C13.4181 12.5172 13.2188 11.7661 12.6221 11.418L12.6191 11.417L6.54883 7.92676L6.54297 7.92285L6.43066 7.86719C5.89729 7.63671 5.25509 7.79754 4.91211 8.28711L4.8457 8.3916C4.13304 9.6362 3.75 11.0518 3.75 12.5C3.75 17.0461 7.45386 20.75 12 20.75C16.5461 20.75 20.25 17.0461 20.25 12.5C20.25 7.95386 16.5461 4.25 12 4.25Z" fill="#1B1B1B" stroke="#1B1B1B"/>
</svg>
