<svg width="25" height="24" viewBox="0 0 25 24" fill="none" xmlns="http://www.w3.org/2000/svg">
<path d="M12.8037 2.5025C13.3708 2.5025 13.9153 2.63023 14.3184 2.86188V2.86285L19.4795 5.84723C20.5513 6.56906 20.9894 6.91107 21.2119 7.29645C21.4265 7.66813 21.4687 8.13328 21.4688 9.27985V14.7203C21.4687 15.8668 21.4269 16.3336 21.2158 16.7037C20.9979 17.0856 20.5688 17.4212 19.5166 18.1334L14.3096 21.1373L14.3047 21.1402C13.9108 21.3733 13.3642 21.4996 12.7988 21.4996C12.3052 21.4996 11.8235 21.4035 11.4385 21.2213L11.2793 21.1373L6.11816 18.1519C5.04777 17.431 4.60835 17.0872 4.38574 16.6998C4.17052 16.3251 4.12891 15.8558 4.12891 14.7095V9.27985C4.12891 8.13327 4.17076 7.66655 4.38184 7.29645C4.59969 6.9145 5.02801 6.57785 6.08008 5.86578L11.2891 2.86285L11.2881 2.86188C11.6912 2.62988 12.2362 2.50253 12.8037 2.5025ZM12.7988 8.24957C10.7329 8.24962 9.04906 9.93365 9.04883 11.9996C9.04883 14.0657 10.7327 15.7495 12.7988 15.7496C14.865 15.7496 16.5488 14.0657 16.5488 11.9996C16.5486 9.93363 14.8648 8.24957 12.7988 8.24957Z" fill="#1B1B1B" stroke="#1B1B1B"/>
</svg>
