<svg width="25" height="24" viewBox="0 0 25 24" fill="none" xmlns="http://www.w3.org/2000/svg">
<path d="M4.13965 7.83789C4.2347 6.72879 4.58229 5.85166 5.17188 5.22559C5.76078 4.6004 6.63992 4.17404 7.89648 4.05762L8.35059 4.01562V2C8.35059 1.86622 8.46683 1.75013 8.60059 1.75C8.73444 1.75 8.85059 1.86614 8.85059 2V4H16.3506V2C16.3506 1.86622 16.4668 1.75013 16.6006 1.75C16.7344 1.75 16.8506 1.86614 16.8506 2V4.01562L17.3047 4.05762C18.5615 4.17399 19.4403 4.60034 20.0293 5.22559C20.6193 5.85204 20.9667 6.72971 21.0615 7.83984H4.14258C4.14178 7.83945 4.1407 7.83883 4.13965 7.83789Z" fill="#1B1B1B" stroke="#1B1B1B"/>
<path d="M4.60059 10.34H20.6006C20.8744 10.34 21.1006 10.5662 21.1006 10.84V17.0002C21.1006 18.4233 20.7446 19.5327 20.0469 20.2844C19.3551 21.0293 18.2553 21.5002 16.6006 21.5002H8.60059C6.94589 21.5002 5.84605 21.0293 5.1543 20.2844C4.45654 19.5327 4.10061 18.4233 4.10059 17.0002V10.84C4.10059 10.5662 4.32673 10.34 4.60059 10.34ZM9.38184 16.0266C9.12849 15.9788 8.86845 15.9954 8.62402 16.0812L8.54102 16.1135C8.33809 16.1915 8.18635 16.3005 8.05566 16.4182L8.04102 16.4318L8.02734 16.4465C7.7655 16.723 7.60059 17.104 7.60059 17.5002C7.60063 17.8964 7.76545 18.2774 8.02734 18.5539L8.04102 18.5685L8.05566 18.5812C8.18357 18.6964 8.33186 18.8033 8.52832 18.881V18.882C8.5325 18.8838 8.53681 18.8852 8.54102 18.8869V18.8859C8.70916 18.9544 8.8997 19.0002 9.10059 19.0002C9.21441 19.0002 9.31567 18.9827 9.37109 18.9748L9.38281 18.9728C9.49666 18.9539 9.60412 18.9173 9.7041 18.8674L9.70312 18.8664C9.7784 18.8361 9.84987 18.8002 9.91699 18.757L9.91797 18.759C9.92091 18.7572 9.92289 18.7539 9.92578 18.7521C9.92942 18.7498 9.93389 18.7487 9.9375 18.7463L9.93652 18.7443C9.98957 18.7103 10.0342 18.676 10.0596 18.6545C10.1001 18.62 10.105 18.6152 10.123 18.6008L10.1494 18.5793L10.1738 18.5539C10.4357 18.2774 10.6005 17.8964 10.6006 17.5002C10.6006 17.104 10.4357 16.723 10.1738 16.4465L10.1494 16.4211L10.123 16.3996L10.0479 16.34C10.0229 16.32 9.99766 16.2995 9.97266 16.2795L9.95605 16.2658L9.9375 16.2541L9.79395 16.1701C9.74416 16.1452 9.69236 16.1235 9.63867 16.1057C9.56176 16.0726 9.48201 16.0448 9.39746 16.0295H9.39844C9.39324 16.0284 9.38802 16.0275 9.38281 16.0266H9.38184ZM12.6006 16.0129C12.2272 16.0129 11.8302 16.1436 11.5371 16.4367L11.5273 16.4465C11.2655 16.723 11.1006 17.104 11.1006 17.5002C11.1006 17.8964 11.2654 18.2774 11.5273 18.5539L11.5469 18.5734C11.8234 18.8353 12.2044 19.0002 12.6006 19.0002C12.9968 19.0002 13.3778 18.8353 13.6543 18.5734L13.6738 18.5539C13.9357 18.2774 14.1005 17.8964 14.1006 17.5002C14.1006 17.104 13.9357 16.723 13.6738 16.4465L13.6641 16.4367L13.5498 16.3342C13.2723 16.1127 12.9273 16.0129 12.6006 16.0129ZM16.1006 16.0129C15.7272 16.0129 15.3302 16.1436 15.0371 16.4367L15.0273 16.4465C14.7655 16.723 14.6006 17.104 14.6006 17.5002C14.6006 17.8964 14.7654 18.2774 15.0273 18.5539L15.0469 18.5734C15.3234 18.8353 15.7044 19.0002 16.1006 19.0002C16.4968 19.0002 16.8778 18.8353 17.1543 18.5734L17.1738 18.5539C17.4357 18.2774 17.6005 17.8964 17.6006 17.5002C17.6006 17.104 17.4357 16.723 17.1738 16.4465L17.1641 16.4367L17.0498 16.3342C16.7723 16.1127 16.4273 16.0129 16.1006 16.0129ZM9.65918 12.6135C9.10165 12.382 8.45435 12.5195 8.03711 12.9367L8.02734 12.9465C7.7655 13.223 7.60059 13.604 7.60059 14.0002C7.60063 14.3964 7.76545 14.7774 8.02734 15.0539L8.04688 15.0734C8.32341 15.3353 8.70436 15.5002 9.10059 15.5002C9.49682 15.5002 9.87776 15.3353 10.1543 15.0734L10.1738 15.0539C10.4357 14.7774 10.6005 14.3964 10.6006 14.0002C10.6006 13.604 10.4357 13.223 10.1738 12.9465L10.1641 12.9367L10.0508 12.8351C9.93819 12.7452 9.81252 12.675 9.67773 12.6213H9.67871C9.67671 12.6204 9.67486 12.6192 9.67285 12.6183C9.66864 12.6167 9.66439 12.6151 9.66016 12.6135H9.65918ZM13.582 12.8605C13.1881 12.523 12.6298 12.409 12.1289 12.5803L12.041 12.6135C11.852 12.6862 11.6811 12.7928 11.5371 12.9367L11.5273 12.9465C11.2655 13.223 11.1006 13.604 11.1006 14.0002C11.1006 14.3964 11.2654 14.7774 11.5273 15.0539L11.5469 15.0734C11.8234 15.3353 12.2044 15.5002 12.6006 15.5002C12.7144 15.5002 12.8157 15.4827 12.8711 15.4748L12.8828 15.4728C12.9967 15.4539 13.1041 15.4173 13.2041 15.3674L13.2031 15.3664C13.2857 15.3332 13.3648 15.2947 13.4375 15.2463L13.4561 15.2336L13.4727 15.2209C13.4977 15.2009 13.5229 15.1803 13.5479 15.1603C13.5728 15.1404 13.5981 15.1207 13.623 15.1008L13.6494 15.0793L13.6738 15.0539C13.9357 14.7774 14.1005 14.3964 14.1006 14.0002C14.1006 13.604 13.9357 13.223 13.6738 12.9465L13.6641 12.9367L13.582 12.8605ZM16.3818 12.5266C16.1285 12.4788 15.8684 12.4954 15.624 12.5812L15.541 12.6135C15.3381 12.6915 15.1864 12.8005 15.0557 12.9182L15.041 12.9318L15.0273 12.9465C14.7655 13.223 14.6006 13.604 14.6006 14.0002C14.6006 14.3964 14.7654 14.7774 15.0273 15.0539L15.0469 15.0734C15.3234 15.3353 15.7044 15.5002 16.1006 15.5002C16.2033 15.5002 16.3112 15.4833 16.3711 15.4748L16.3828 15.4728C16.4967 15.4539 16.6041 15.4173 16.7041 15.3674L16.7031 15.3664C16.7857 15.3332 16.8648 15.2947 16.9375 15.2463L16.9561 15.2336L16.9727 15.2209C16.9977 15.2009 17.0229 15.1803 17.0479 15.1603C17.0728 15.1404 17.0981 15.1207 17.123 15.1008L17.1494 15.0793L17.1738 15.0539C17.4357 14.7774 17.6005 14.3964 17.6006 14.0002C17.6006 13.604 17.4357 13.223 17.1738 12.9465L17.1494 12.9211L17.123 12.8996L17.0479 12.84C17.0229 12.82 16.9977 12.7995 16.9727 12.7795L16.9561 12.7658L16.9375 12.7541L16.7939 12.6701C16.7442 12.6452 16.6924 12.6235 16.6387 12.6057C16.5618 12.5726 16.482 12.5448 16.3975 12.5295H16.3984C16.3932 12.5284 16.388 12.5275 16.3828 12.5266H16.3818Z" fill="#1B1B1B" stroke="#1B1B1B"/>
</svg>
