<svg width="25" height="25" viewBox="0 0 25 25" fill="none" xmlns="http://www.w3.org/2000/svg">
<path d="M10.2432 3.64941C11.2598 2.83305 12.8532 2.78692 13.9551 3.50684L14.1689 3.66113L20.7139 8.89648V8.89746C21.0918 9.20556 21.4198 9.68882 21.6309 10.2412C21.8409 10.7911 21.9191 11.3673 21.8467 11.8477L20.5879 19.3848C20.3388 20.8182 18.9437 22 17.5 22H6.90039C5.5272 22 4.24328 20.9867 3.88281 19.6641L3.82324 19.3955L2.56348 11.8574V11.8564L2.54004 11.6709C2.50192 11.2279 2.58081 10.7244 2.76465 10.2422C2.94849 9.7601 3.22485 9.33066 3.5498 9.02441L3.69238 8.90039L10.2432 3.65039V3.64941ZM12.2002 14.25C11.5141 14.25 10.9502 14.8139 10.9502 15.5V18.5C10.9502 19.1861 11.5141 19.75 12.2002 19.75C12.8863 19.75 13.4502 19.1861 13.4502 18.5V15.5C13.4502 14.8139 12.8863 14.25 12.2002 14.25Z" fill="#1B1B1B" stroke="#1B1B1B"/>
</svg>
