<svg width="25" height="26" viewBox="0 0 25 26" fill="none" xmlns="http://www.w3.org/2000/svg">
<g clip-path="url(#clip0_16_1374)">
<path d="M24.4821 13.5044C24.4821 12.4986 24.4005 11.7646 24.2239 11.0035H12.7389V15.5431H19.4803C19.3445 16.6712 18.6105 18.3702 16.9795 19.5118L16.9566 19.6638L20.5879 22.477L20.8395 22.5021C23.1501 20.3682 24.4821 17.2285 24.4821 13.5044Z" fill="#4285F4"/>
<path d="M12.7389 25.465C16.0416 25.465 18.8143 24.3777 20.8396 22.5021L16.9795 19.5118C15.9465 20.2322 14.5602 20.7351 12.7389 20.7351C9.50411 20.7351 6.75861 18.6012 5.77991 15.6519L5.63646 15.664L1.86054 18.5863L1.81116 18.7235C3.82271 22.7195 7.95459 25.465 12.7389 25.465Z" fill="#34A853"/>
<path d="M5.77999 15.6518C5.52176 14.8907 5.37231 14.0752 5.37231 13.2325C5.37231 12.3898 5.52176 11.5743 5.76641 10.8132L5.75957 10.6511L1.93633 7.68192L1.81124 7.74141C0.982184 9.39962 0.50647 11.2617 0.50647 13.2325C0.50647 15.2033 0.982184 17.0653 1.81124 18.7235L5.77999 15.6518Z" fill="#FBBC05"/>
<path d="M12.7389 5.72988C15.0359 5.72988 16.5853 6.72207 17.4688 7.55122L20.9211 4.18046C18.8008 2.20967 16.0416 1 12.7389 1C7.95459 1 3.82271 3.7455 1.81116 7.74143L5.76632 10.8132C6.75861 7.8638 9.50411 5.72988 12.7389 5.72988Z" fill="#EB4335"/>
</g>
<defs>
<clipPath id="clip0_16_1374">
<rect width="24" height="26" fill="white" transform="translate(0.5)"/>
</clipPath>
</defs>
</svg>
