<svg width="24" height="24" viewBox="0 0 24 24" fill="none" xmlns="http://www.w3.org/2000/svg">
<rect width="24" height="24" rx="12" fill="#FFCF00"/>
<path d="M15.4998 17H8.49984C8.45563 17 8.41324 16.9824 8.38199 16.9512C8.35073 16.9199 8.33317 16.8775 8.33317 16.8333V16.4333C8.33647 16.0843 8.42431 15.7412 8.58918 15.4336C8.75405 15.1259 8.99104 14.8627 9.27984 14.6667L10.6665 13.68C10.9469 13.4947 11.1798 13.2461 11.3465 12.9543C11.5133 12.6625 11.6092 12.3356 11.6265 12H12.3732C12.3905 12.3356 12.4864 12.6625 12.6532 12.9543C12.8199 13.2461 13.0528 13.4947 13.3332 13.68L14.7198 14.6667C15.0086 14.8627 15.2456 15.1259 15.4105 15.4336C15.5754 15.7412 15.6632 16.0843 15.6665 16.4333V16.8333C15.6665 16.8775 15.6489 16.9199 15.6177 16.9512C15.5864 16.9824 15.544 17 15.4998 17ZM8.49984 5.33334C8.01361 5.33334 7.54729 5.52649 7.20347 5.87031C6.85966 6.21412 6.6665 6.68044 6.6665 7.16667V7.44667C6.6666 8.10859 6.83808 8.7592 7.16427 9.33517C7.49045 9.91113 7.96022 10.3928 8.52784 10.7333L9.7345 11.4573C9.80644 11.5005 9.86635 11.5611 9.90872 11.6335C9.95109 11.706 9.97455 11.7879 9.97694 11.8718C9.97933 11.9556 9.96057 12.0388 9.9224 12.1135C9.88423 12.1882 9.82786 12.2521 9.7585 12.2993L8.3445 13.2613C7.82752 13.6128 7.40435 14.0854 7.11188 14.638C6.81941 15.1905 6.66651 15.8062 6.6665 16.4313V16.8333C6.6665 17.3196 6.85966 17.7859 7.20347 18.1297C7.54729 18.4735 8.01361 18.6667 8.49984 18.6667H15.4998C15.7406 18.6667 15.979 18.6192 16.2014 18.5271C16.4239 18.435 16.626 18.2999 16.7962 18.1297C16.9664 17.9595 17.1015 17.7574 17.1936 17.5349C17.2858 17.3125 17.3332 17.0741 17.3332 16.8333V16.4307C17.3331 15.8056 17.1801 15.1901 16.8876 14.6377C16.5952 14.0853 16.1721 13.6128 15.6552 13.2613L14.2412 12.2993C14.1718 12.2521 14.1154 12.1882 14.0773 12.1135C14.0391 12.0388 14.0203 11.9556 14.0227 11.8718C14.0251 11.7879 14.0486 11.706 14.091 11.6335C14.1333 11.5611 14.1932 11.5005 14.2652 11.4573L15.4718 10.7333C16.0395 10.3928 16.5092 9.91113 16.8354 9.33517C17.1616 8.7592 17.3331 8.10859 17.3332 7.44667V7.16667C17.3332 6.92591 17.2858 6.68751 17.1936 6.46508C17.1015 6.24265 16.9664 6.04055 16.7962 5.87031C16.626 5.70007 16.4239 5.56502 16.2014 5.47289C15.979 5.38076 15.7406 5.33334 15.4998 5.33334H8.49984ZM7.6665 7.16667C7.6665 6.70667 8.03984 6.33334 8.49984 6.33334H15.4998C15.9598 6.33334 16.3332 6.70667 16.3332 7.16667V7.44667C16.333 7.93577 16.2063 8.4165 15.9653 8.8421C15.7243 9.26769 15.3772 9.62365 14.9578 9.87534L13.7512 10.6C12.8112 11.1633 12.7732 12.5107 13.6792 13.1267L15.0925 14.088C15.4747 14.3478 15.7876 14.6971 16.0039 15.1056C16.2201 15.514 16.3332 15.9692 16.3332 16.4313V16.8333C16.3332 17.2933 15.9598 17.6667 15.4998 17.6667H8.49984C8.03984 17.6667 7.6665 17.2933 7.6665 16.8333V16.4307C7.66654 15.9687 7.77954 15.5137 7.99567 15.1054C8.21179 14.6971 8.52449 14.3478 8.9065 14.088L10.3205 13.1267C11.2265 12.5107 11.1885 11.1633 10.2492 10.6L9.0425 9.87534C8.62301 9.62373 8.2758 9.26781 8.03467 8.84221C7.79354 8.41661 7.6667 7.93583 7.6665 7.44667V7.16667Z" fill="#1B1B1B"/>
</svg>
