<svg width="20" height="20" viewBox="0 0 20 20" fill="none" xmlns="http://www.w3.org/2000/svg">
<path d="M8.40033 1.66667C4.55866 2.44667 1.66699 5.84334 1.66699 9.91584C1.66699 14.565 5.43533 18.3333 10.0845 18.3333C14.157 18.3333 17.5537 15.4417 18.3337 11.6" stroke="#002878" stroke-width="1.25" stroke-linecap="round" stroke-linejoin="round"/>
<path d="M15.7817 15C16.0916 14.9346 16.3899 14.8231 16.6667 14.6692M12.24 14.4508C12.7372 14.6675 13.2142 14.8286 13.6708 14.9342M9.04583 12.4567C9.39 12.6983 9.75833 12.9883 10.1167 13.2383M2.5 11.5217C2.76833 11.3908 3.05833 11.24 3.38583 11.1108M5.375 10.8333C5.84333 10.885 6.36833 11.0192 6.96333 11.2692M15.4167 5.83334C15.4167 5.50182 15.285 5.18388 15.0505 4.94946C14.8161 4.71504 14.4982 4.58334 14.1667 4.58334C13.8351 4.58334 13.5172 4.71504 13.2828 4.94946C13.0484 5.18388 12.9167 5.50182 12.9167 5.83334C12.9167 6.16486 13.0484 6.48281 13.2828 6.71723C13.5172 6.95165 13.8351 7.08334 14.1667 7.08334C14.4982 7.08334 14.8161 6.95165 15.0505 6.71723C15.285 6.48281 15.4167 6.16486 15.4167 5.83334Z" stroke="#002878" stroke-width="1.25" stroke-linecap="round" stroke-linejoin="round"/>
<path d="M14.1667 1.66667C16.4217 1.66667 18.3333 3.515 18.3333 5.75834C18.3333 8.03584 16.3908 9.63501 14.5958 10.7217C14.4646 10.7946 14.3169 10.8329 14.1667 10.8329C14.0165 10.8329 13.8688 10.7946 13.7375 10.7217C11.9458 9.62501 10 8.04417 10 5.75834C10 3.51667 11.9117 1.66667 14.1667 1.66667Z" stroke="#002878" stroke-width="1.25" stroke-linecap="round" stroke-linejoin="round"/>
</svg>
