<svg width="25" height="24" viewBox="0 0 25 24" fill="none" xmlns="http://www.w3.org/2000/svg">
<path d="M8.90039 19H8.40039C4.40039 19 2.40039 18 2.40039 13V8C2.40039 4 4.40039 2 8.40039 2H16.4004C20.4004 2 22.4004 4 22.4004 8V13C22.4004 17 20.4004 19 16.4004 19H15.9004C15.5904 19 15.2904 19.15 15.1004 19.4L13.6004 21.4C12.9404 22.28 11.8604 22.28 11.2004 21.4L9.70039 19.4C9.54039 19.18 9.17039 19 8.90039 19Z" stroke="#1B1B1B" stroke-width="1.5" stroke-miterlimit="10" stroke-linecap="round" stroke-linejoin="round"/>
<path d="M16.3969 11H16.4058" stroke="#1B1B1B" stroke-width="2" stroke-linecap="round" stroke-linejoin="round"/>
<path d="M12.3959 11H12.4049" stroke="#1B1B1B" stroke-width="2" stroke-linecap="round" stroke-linejoin="round"/>
<path d="M8.3949 11H8.40388" stroke="#1B1B1B" stroke-width="2" stroke-linecap="round" stroke-linejoin="round"/>
</svg>
