<svg width="25" height="25" viewBox="0 0 25 25" fill="none" xmlns="http://www.w3.org/2000/svg">
<path d="M13.9473 16.4476C13.9473 16.8454 13.7892 17.227 13.5079 17.5083C13.2266 17.7896 12.8451 17.9476 12.4473 17.9476C12.0494 17.9476 11.6679 17.7896 11.3866 17.5083C11.1053 17.227 10.9473 16.8454 10.9473 16.4476C10.9473 16.0498 11.1053 15.6682 11.3866 15.3869C11.6679 15.1056 12.0494 14.9476 12.4473 14.9476C12.8451 14.9476 13.2266 15.1056 13.5079 15.3869C13.7892 15.6682 13.9473 16.0498 13.9473 16.4476Z" fill="#002878"/>
<path d="M14.7943 1.1076L17.9743 5.56361L20.0713 4.8486L21.9853 10.4476H22.9473V22.4476H1.94727V10.4476H2.45727V10.4376L3.10527 10.4436L14.7943 1.1076ZM9.84427 10.4476H19.8723L18.8353 7.41461L17.3133 7.90161L9.84427 10.4476ZM8.28627 8.8646L15.9973 6.23761L14.3933 3.9876L8.28627 8.8646ZM5.94727 12.4476H3.94727V14.4476C4.4777 14.4476 4.98641 14.2369 5.36148 13.8618C5.73655 13.4867 5.94727 12.978 5.94727 12.4476ZM15.9473 16.4476C15.9473 15.988 15.8567 15.5329 15.6808 15.1082C15.505 14.6836 15.2471 14.2977 14.9221 13.9727C14.5971 13.6477 14.2113 13.3899 13.7867 13.214C13.362 13.0381 12.9069 12.9476 12.4473 12.9476C11.9876 12.9476 11.5325 13.0381 11.1079 13.214C10.6832 13.3899 10.2974 13.6477 9.97239 13.9727C9.64739 14.2977 9.38958 14.6836 9.21369 15.1082C9.0378 15.5329 8.94727 15.988 8.94727 16.4476C8.94727 17.3759 9.31601 18.2661 9.97239 18.9225C10.6288 19.5789 11.519 19.9476 12.4473 19.9476C13.3755 19.9476 14.2658 19.5789 14.9221 18.9225C15.5785 18.2661 15.9473 17.3759 15.9473 16.4476ZM20.9473 20.4476V18.4476C20.4168 18.4476 19.9081 18.6583 19.5331 19.0334C19.158 19.4085 18.9473 19.9172 18.9473 20.4476H20.9473ZM18.9473 12.4476C18.9473 12.978 19.158 13.4867 19.5331 13.8618C19.9081 14.2369 20.4168 14.4476 20.9473 14.4476V12.4476H18.9473ZM3.94727 20.4476H5.94727C5.94727 19.9172 5.73655 19.4085 5.36148 19.0334C4.98641 18.6583 4.4777 18.4476 3.94727 18.4476V20.4476Z" fill="#002878"/>
</svg>
