<svg width="24" height="24" viewBox="0 0 24 24" fill="none" xmlns="http://www.w3.org/2000/svg">
<path d="M2 12C2 8.463 2 6.694 3.053 5.513C3.22167 5.32367 3.40633 5.14967 3.607 4.991C4.862 4 6.741 4 10.5 4H13.5C17.259 4 19.138 4 20.392 4.99C20.5933 5.15 20.7783 5.32433 20.947 5.513C22 6.693 22 8.463 22 12C22 15.537 22 17.306 20.947 18.487C20.7774 18.6767 20.5917 18.8514 20.392 19.009C19.138 20 17.26 20 13.5 20H10.5C6.741 20 4.862 20 3.607 19.01C3.40756 18.852 3.2222 18.677 3.053 18.487C2 17.307 2 15.537 2 12Z" stroke="#1B1B1B" stroke-width="1.5" stroke-linecap="round" stroke-linejoin="round"/>
<path d="M5 12H6M18 12H19M14.551 12C14.551 12.663 14.2876 13.2989 13.8188 13.7678C13.3499 14.2366 12.714 14.5 12.051 14.5C11.388 14.5 10.7521 14.2366 10.2832 13.7678C9.81439 13.2989 9.551 12.663 9.551 12C9.551 11.337 9.81439 10.7011 10.2832 10.2322C10.7521 9.76339 11.388 9.5 12.051 9.5C12.714 9.5 13.3499 9.76339 13.8188 10.2322C14.2876 10.7011 14.551 11.337 14.551 12Z" stroke="#1B1B1B" stroke-width="1.5" stroke-linecap="round" stroke-linejoin="round"/>
</svg>
