<svg width="16" height="16" viewBox="0 0 16 16" fill="none" xmlns="http://www.w3.org/2000/svg">
<path d="M7.94781 3.19334C11.1305 2.108 12.7218 1.566 13.5778 2.422C14.4338 3.278 13.8911 4.86867 12.8065 8.052L12.0678 10.2193C11.2345 12.664 10.8178 13.886 10.1305 13.9873C9.94581 14.014 9.75515 13.998 9.57248 13.9393C8.89248 13.7213 8.53381 12.4327 7.81515 9.85534C7.65581 9.284 7.57648 8.998 7.39515 8.77934C7.34242 8.71607 7.28395 8.65782 7.22048 8.60534C7.00181 8.42334 6.71648 8.344 6.14448 8.18467C3.56714 7.466 2.27848 7.10734 2.06048 6.42734C2.00213 6.24743 1.98571 6.05656 2.01248 5.86934C2.11381 5.18267 3.33581 4.76534 5.78048 3.932L7.94781 3.19334Z" stroke="#1B1B1B" stroke-width="1.5" stroke-linecap="round" stroke-linejoin="round"/>
</svg>
