<svg width="24" height="24" viewBox="0 0 24 24" fill="none" xmlns="http://www.w3.org/2000/svg">
<path d="M22 12C22 6.477 17.523 2 12 2C6.477 2 2 6.477 2 12C2 17.523 6.477 22 12 22C17.523 22 22 17.523 22 12Z" stroke="#8B5CF6" stroke-width="1.5" stroke-linecap="round" stroke-linejoin="round"/>
<path d="M15.6803 9.62628C15.6803 9.78702 15.6164 9.94117 15.5028 10.0548C15.3891 10.1685 15.235 10.2323 15.0742 10.2323H13.6601C13.6591 11.0893 13.3183 11.9109 12.7123 12.5169C12.1063 13.1229 11.2847 13.4637 10.4277 13.4647H10.1752L13.4581 16.4506C13.5181 16.5038 13.5669 16.5684 13.6017 16.6406C13.6366 16.7129 13.6567 16.7913 13.661 16.8714C13.6654 16.9515 13.6537 17.0316 13.6268 17.1072C13.5999 17.1827 13.5583 17.2522 13.5044 17.3115C13.4504 17.3709 13.3853 17.419 13.3126 17.4529C13.24 17.4869 13.1613 17.5061 13.0812 17.5095C13.001 17.5128 12.921 17.5002 12.8458 17.4724C12.7706 17.4446 12.7016 17.4022 12.6429 17.3475L8.19843 13.3071C8.10769 13.2246 8.04409 13.1166 8.01605 12.9972C7.98802 12.8778 7.99685 12.7527 8.04139 12.6385C8.08593 12.5242 8.16409 12.4262 8.26553 12.3573C8.36697 12.2884 8.48692 12.2519 8.60955 12.2526H10.4277C10.9635 12.2526 11.4774 12.0397 11.8562 11.6608C12.2351 11.282 12.448 10.7681 12.448 10.2323H8.60955C8.44881 10.2323 8.29465 10.1685 8.18099 10.0548C8.06733 9.94117 8.00348 9.78702 8.00348 9.62628C8.00348 9.46554 8.06733 9.31139 8.18099 9.19773C8.29465 9.08407 8.44881 9.02021 8.60955 9.02021H12.0439C11.8557 8.76931 11.6117 8.56567 11.3312 8.42541C11.0507 8.28515 10.7414 8.21213 10.4277 8.21213H8.60955C8.44881 8.21213 8.29465 8.14828 8.18099 8.03462C8.06733 7.92096 8.00348 7.7668 8.00348 7.60606C8.00348 7.44533 8.06733 7.29117 8.18099 7.17751C8.29465 7.06385 8.44881 7 8.60955 7H15.0742C15.235 7 15.3891 7.06385 15.5028 7.17751C15.6164 7.29117 15.6803 7.44533 15.6803 7.60606C15.6803 7.7668 15.6164 7.92096 15.5028 8.03462C15.3891 8.14828 15.235 8.21213 15.0742 8.21213H12.9485C13.1451 8.457 13.3051 8.72922 13.4232 9.02021H15.0742C15.235 9.02021 15.3891 9.08407 15.5028 9.19773C15.6164 9.31139 15.6803 9.46554 15.6803 9.62628Z" fill="#8B5CF6"/>
</svg>
