<svg width="17" height="22" viewBox="0 0 17 22" fill="none" xmlns="http://www.w3.org/2000/svg">
<path d="M7.5 18H9.5M1.5 8C1.5 4.7 1.5 3.05 2.525 2.025C3.55 1 5.2 1 8.5 1C11.8 1 13.45 1 14.475 2.025C15.5 3.05 15.5 4.7 15.5 8V14C15.5 17.3 15.5 18.95 14.475 19.975C13.45 21 11.8 21 8.5 21C5.2 21 3.55 21 2.525 19.975C1.5 18.95 1.5 17.3 1.5 14V8Z" stroke="white" stroke-width="1.5" stroke-linecap="round" stroke-linejoin="round"/>
<path d="M5.5 1L5.589 1.534C5.782 2.691 5.879 3.27 6.275 3.622C6.69 3.989 7.276 4 8.5 4C9.724 4 10.31 3.99 10.725 3.622C11.122 3.27 11.218 2.692 11.411 1.534L11.5 1" stroke="white" stroke-width="1.5" stroke-linecap="round" stroke-linejoin="round"/>
</svg>
