<svg width="40" height="40" viewBox="0 0 40 40" fill="none" xmlns="http://www.w3.org/2000/svg">
<path d="M19.9993 38.3334C30.1246 38.3334 38.3327 30.1252 38.3327 20C38.3327 9.8748 30.1246 1.66669 19.9993 1.66669C9.87413 1.66669 1.66602 9.8748 1.66602 20C1.66602 30.1252 9.87413 38.3334 19.9993 38.3334Z" stroke="white" stroke-width="2" stroke-linecap="round" stroke-linejoin="round"/>
<path d="M26.3298 20.7242C26.053 21.8737 24.7403 22.6859 22.1132 24.3084C19.5777 25.8777 18.309 26.6642 17.286 26.3489C16.8564 26.2111 16.4707 25.9626 16.1677 25.6284C15.416 24.8034 15.416 23.201 15.416 20C15.416 16.799 15.416 15.1967 16.1677 14.3717C16.4793 14.0307 16.8643 13.7832 17.286 13.653C18.309 13.3359 19.5777 14.1224 22.115 15.6917C24.7403 17.316 26.053 18.1282 26.3317 19.2759C26.4454 19.7519 26.4454 20.2481 26.3317 20.7242" stroke="white" stroke-width="2" stroke-linecap="round" stroke-linejoin="round"/>
</svg>
