<svg width="24" height="25" viewBox="0 0 24 25" fill="none" xmlns="http://www.w3.org/2000/svg">
<path d="M6 4.5C7.67 3.25 9.75 2.5 12 2.5C17.52 2.5 22 6.98 22 12.5C22 18.02 17.52 22.5 12 22.5C6.48 22.5 2 18.02 2 12.5C2 10.69 2.47999 8.98999 3.32999 7.51999L12 12.5" stroke="#1B1B1B" stroke-width="1.5" stroke-miterlimit="10" stroke-linecap="round" stroke-linejoin="round"/>
<path d="M6.82999 9.45999C6.29999 10.35 6 11.39 6 12.5C6 15.81 8.69 18.5 12 18.5C15.31 18.5 18 15.81 18 12.5C18 9.19 15.31 6.5 12 6.5C11.09 6.5 10.22 6.70001 9.45001 7.07001" stroke="#1B1B1B" stroke-width="1.5" stroke-miterlimit="10" stroke-linecap="round" stroke-linejoin="round"/>
</svg>
