<svg width="25" height="24" viewBox="0 0 25 24" fill="none" xmlns="http://www.w3.org/2000/svg">
<path d="M3.80029 9.10998V14.88C3.80029 17 3.80029 17 5.80029 18.35L11.3003 21.53C12.1303 22.01 13.4803 22.01 14.3003 21.53L19.8003 18.35C21.8003 17 21.8003 17 21.8003 14.89V9.10998C21.8003 6.99998 21.8003 6.99999 19.8003 5.64999L14.3003 2.46999C13.4803 1.98999 12.1303 1.98999 11.3003 2.46999L5.80029 5.64999C3.80029 6.99999 3.80029 6.99998 3.80029 9.10998Z" stroke="#1B1B1B" stroke-width="1.5" stroke-linecap="round" stroke-linejoin="round"/>
<path d="M12.8003 15C14.4571 15 15.8003 13.6569 15.8003 12C15.8003 10.3431 14.4571 9 12.8003 9C11.1434 9 9.80029 10.3431 9.80029 12C9.80029 13.6569 11.1434 15 12.8003 15Z" stroke="#1B1B1B" stroke-width="1.5" stroke-linecap="round" stroke-linejoin="round"/>
</svg>
