<svg width="22" height="22" viewBox="0 0 22 22" fill="none" xmlns="http://www.w3.org/2000/svg">
<path d="M12.7272 2.44399L14.4872 5.99299C14.7272 6.48699 15.3672 6.96099 15.9072 7.05099L19.0962 7.58599C21.1362 7.92899 21.6162 9.42099 20.1462 10.893L17.6662 13.393C17.2462 13.816 17.0162 14.633 17.1462 15.218L17.8562 18.313C18.4162 20.763 17.1262 21.71 14.9762 20.43L11.9862 18.645C11.4462 18.323 10.5562 18.323 10.0062 18.645L7.01822 20.43C4.87822 21.71 3.57822 20.752 4.13822 18.313L4.84822 15.218C4.97822 14.633 4.74822 13.816 4.32822 13.393L1.84822 10.893C0.389217 9.41999 0.859217 7.92899 2.89822 7.58599L6.08822 7.05099C6.61822 6.96099 7.25822 6.48699 7.49822 5.99299L9.25822 2.44399C10.2182 0.518994 11.7782 0.518994 12.7282 2.44399" stroke="#002878" stroke-width="1.5" stroke-linecap="round" stroke-linejoin="round"/>
</svg>
