<svg width="24" height="24" viewBox="0 0 24 24" fill="none" xmlns="http://www.w3.org/2000/svg">
<path d="M5 22H19M5 2H19M17 22V17.828C16.9999 17.2976 16.7891 16.789 16.414 16.414L12 12M12 12L7.586 16.414C7.2109 16.789 7.00011 17.2976 7 17.828V22M12 12L7.586 7.586C7.2109 7.21101 7.00011 6.70239 7 6.172V2M12 12L16.414 7.586C16.7891 7.21101 16.9999 6.70239 17 6.172V2" stroke="#002878" stroke-width="2" stroke-linecap="round" stroke-linejoin="round"/>
<path d="M19 2V5C19 6.85652 18.2625 8.63699 16.9497 9.94975C15.637 11.2625 13.8565 12 12 12M12 12C10.1435 12 8.36301 11.2625 7.05025 9.94975C5.7375 8.63699 5 6.85652 5 5V2M12 12C13.8565 12 15.637 12.7375 16.9497 14.0503C18.2625 15.363 19 17.1435 19 19V22M12 12C10.1435 12 8.36301 12.7375 7.05025 14.0503C5.7375 15.363 5 17.1435 5 19V22M4 2H20M20 22H4" stroke="#002878" stroke-width="1.5" stroke-linecap="round" stroke-linejoin="round"/>
</svg>
