<svg width="24" height="24" viewBox="0 0 24 24" fill="none" xmlns="http://www.w3.org/2000/svg">
<path d="M14 18C14 18 15 18 16 20C16 20 19.177 15 22 14" stroke="#002878" stroke-width="1.5" stroke-linecap="round" stroke-linejoin="round"/>
<path d="M13 22H6.58996C5.04496 22 3.81596 21.248 2.71296 20.197C0.452962 18.044 4.16296 16.324 5.57796 15.482C8.75596 13.589 12.753 13.51 16 15.243M16.5 6.5C16.5 7.69347 16.0259 8.83807 15.1819 9.68198C14.338 10.5259 13.1934 11 12 11C10.8065 11 9.66189 10.5259 8.81798 9.68198C7.97407 8.83807 7.49996 7.69347 7.49996 6.5C7.49996 5.30653 7.97407 4.16193 8.81798 3.31802C9.66189 2.47411 10.8065 2 12 2C13.1934 2 14.338 2.47411 15.1819 3.31802C16.0259 4.16193 16.5 5.30653 16.5 6.5Z" stroke="#002878" stroke-width="1.5" stroke-linecap="round" stroke-linejoin="round"/>
</svg>
