<svg width="25" height="25" viewBox="0 0 25 25" fill="none" xmlns="http://www.w3.org/2000/svg">
<path fill-rule="evenodd" clip-rule="evenodd" d="M5.44727 6.6976C4.71792 6.6976 4.01845 6.98733 3.50272 7.50306C2.987 8.01878 2.69727 8.71826 2.69727 9.4476V18.4476C2.69727 19.1769 2.987 19.8764 3.50272 20.3921C4.01845 20.9079 4.71792 21.1976 5.44727 21.1976H19.4473C20.1766 21.1976 20.8761 20.9079 21.3918 20.3921C21.9075 19.8764 22.1973 19.1769 22.1973 18.4476V9.4476C22.1973 8.71826 21.9075 8.01878 21.3918 7.50306C20.8761 6.98733 20.1766 6.6976 19.4473 6.6976H5.44727ZM16.9473 12.6976C16.6157 12.6976 16.2978 12.8293 16.0634 13.0637C15.829 13.2981 15.6973 13.6161 15.6973 13.9476C15.6973 14.2791 15.829 14.5971 16.0634 14.8315C16.2978 15.0659 16.6157 15.1976 16.9473 15.1976C17.2788 15.1976 17.5967 15.0659 17.8312 14.8315C18.0656 14.5971 18.1973 14.2791 18.1973 13.9476C18.1973 13.6161 18.0656 13.2981 17.8312 13.0637C17.5967 12.8293 17.2788 12.6976 16.9473 12.6976Z" fill="#002878"/>
<path d="M16.9323 3.5166C17.2283 3.4377 17.5386 3.42788 17.8391 3.48791C18.1395 3.54794 18.4222 3.6762 18.6653 3.86281C18.9083 4.04941 19.1052 4.28936 19.2408 4.56415C19.3764 4.83893 19.447 5.14119 19.4473 5.4476H9.44727L16.9323 3.5166Z" fill="#002878"/>
</svg>
