<svg width="24" height="24" viewBox="0 0 24 24" fill="none" xmlns="http://www.w3.org/2000/svg">
<path d="M18.9345 13.945L18.2645 10.297C17.9745 8.721 17.8295 7.933 17.2565 7.467C16.6835 7.001 15.8595 7 14.2125 7H9.78651C8.13951 7 7.31651 7 6.74251 7.467C6.16951 7.933 6.02451 8.721 5.73451 10.297L5.06451 13.945C4.46451 17.216 4.16351 18.852 5.08851 19.925C6.01351 21 7.72351 21 11.1415 21H12.8575C16.2755 21 17.9855 21 18.9105 19.926C19.8355 18.852 19.5355 17.216 18.9345 13.946" stroke="#002878" stroke-width="1.5" stroke-linecap="round" stroke-linejoin="round"/>
<path d="M12 10.5V17M9.5 15L12 17.5L14.5 15M21 11C21.1545 10.9229 21.2946 10.8197 21.414 10.695C22 10.089 22 9.11 22 7.152C22 5.194 22 4.216 21.414 3.608C20.828 3 19.886 3 18 3H6C4.114 3 3.172 3 2.586 3.608C2 4.216 2 5.195 2 7.152C2 9.109 2 10.088 2.586 10.695C2.706 10.8203 2.844 10.922 3 11" stroke="#002878" stroke-width="1.5" stroke-linecap="round" stroke-linejoin="round"/>
</svg>
